HIERARCHY
ROOT Hips
{
  OFFSET -281.163 91.4194 1547.74
  CHANNELS 6 Xposition Yposition Zposition Zrotation Xrotation Yrotation
  JOINT Spine
  {
    OFFSET 0 8 0
    CHANNELS 6 Xposition Yposition Zposition Zrotation Xrotation Yrotation
    JOINT Spine1
    {
      OFFSET 0 8 0
      CHANNELS 6 Xposition Yposition Zposition Zrotation Xrotation Yrotation
      JOINT Spine2
      {
        OFFSET 0 8 0
        CHANNELS 6 Xposition Yposition Zposition Zrotation Xrotation Yrotation
        JOINT Spine3
        {
          OFFSET 0 8 0
          CHANNELS 6 Xposition Yposition Zposition Zrotation Xrotation Yrotation
          JOINT Neck
          {
            OFFSET 0 17 0
            CHANNELS 6 Xposition Yposition Zposition Zrotation Xrotation Yrotation
            JOINT Head
            {
              OFFSET 0 10.8 0
              CHANNELS 6 Xposition Yposition Zposition Zrotation Xrotation Yrotation
              End Site
              {
                OFFSET 0 20.25 0
              }
            }
          }
          JOINT LeftShoulder
          {
            OFFSET 5 17 0
            CHANNELS 6 Xposition Yposition Zposition Zrotation Xrotation Yrotation
            JOINT LeftShoulder2
            {
              OFFSET 6.45 0 0
              CHANNELS 6 Xposition Yposition Zposition Zrotation Xrotation Yrotation
              JOINT LeftArm
              {
                OFFSET 6.45 0 0
                CHANNELS 6 Xposition Yposition Zposition Zrotation Xrotation Yrotation
                JOINT LeftForeArm
                {
                  OFFSET 0 -32.4 -2
                  CHANNELS 6 Xposition Yposition Zposition Zrotation Xrotation Yrotation
                  JOINT LeftHand
                  {
                    OFFSET 0 -25.65 2
                    CHANNELS 6 Xposition Yposition Zposition Zrotation Xrotation Yrotation
                    JOINT LeftHandThumb1
                    {
                      OFFSET -0.5 -1.5 2.65
                      CHANNELS 6 Xposition Yposition Zposition Zrotation Xrotation Yrotation
                      JOINT LeftHandThumb2
                      {
                        OFFSET 0 -3.8 3.7
                        CHANNELS 6 Xposition Yposition Zposition Zrotation Xrotation Yrotation
                        JOINT LeftHandThumb3
                        {
                          OFFSET 0 -3 2.7
                          CHANNELS 6 Xposition Yposition Zposition Zrotation Xrotation Yrotation
                          End Site
                          {
                            OFFSET 0 -2.3 1.8
                          }
                        }
                      }
                    }
                    JOINT LeftHandIndex
                    {
                      OFFSET 0 -1.9 1.6
                      CHANNELS 6 Xposition Yposition Zposition Zrotation Xrotation Yrotation
                      JOINT LeftHandIndex1
                      {
                        OFFSET 0 -8.3 1.9
                        CHANNELS 6 Xposition Yposition Zposition Zrotation Xrotation Yrotation
                        JOINT LeftHandIndex2
                        {
                          OFFSET 0 -4.5 0
                          CHANNELS 6 Xposition Yposition Zposition Zrotation Xrotation Yrotation
                          JOINT LeftHandIndex3
                          {
                            OFFSET 0 -3.4 0
                            CHANNELS 6 Xposition Yposition Zposition Zrotation Xrotation Yrotation
                            End Site
                            {
                              OFFSET 0 -2.6 0
                            }
                          }
                        }
                      }
                    }
                    JOINT LeftHandMiddle
                    {
                      OFFSET -0.25 -2.2 0.4
                      CHANNELS 6 Xposition Yposition Zposition Zrotation Xrotation Yrotation
                      JOINT LeftHandMiddle1
                      {
                        OFFSET 0 -8.3 1
                        CHANNELS 6 Xposition Yposition Zposition Zrotation Xrotation Yrotation
                        JOINT LeftHandMiddle2
                        {
                          OFFSET 0 -4.65 0
                          CHANNELS 6 Xposition Yposition Zposition Zrotation Xrotation Yrotation
                          JOINT LeftHandMiddle3
                          {
                            OFFSET 0 -3.3 0
                            CHANNELS 6 Xposition Yposition Zposition Zrotation Xrotation Yrotation
                            End Site
                            {
                              OFFSET 0 -2.7 0
                            }
                          }
                        }
                      }
                    }
                    JOINT LeftHandRing
                    {
                      OFFSET -0.5 -2.15 -0.8
                      CHANNELS 6 Xposition Yposition Zposition Zrotation Xrotation Yrotation
                      JOINT LeftHandRing1
                      {
                        OFFSET 0 -7.75 -0.2
                        CHANNELS 6 Xposition Yposition Zposition Zrotation Xrotation Yrotation
                        JOINT LeftHandRing2
                        {
                          OFFSET 0 -3.8 0
                          CHANNELS 6 Xposition Yposition Zposition Zrotation Xrotation Yrotation
                          JOINT LeftHandRing3
                          {
                            OFFSET 0 -3.4 0
                            CHANNELS 6 Xposition Yposition Zposition Zrotation Xrotation Yrotation
                            End Site
                            {
                              OFFSET 0 -2.6 0
                            }
                          }
                        }
                      }
                    }
                    JOINT LeftHandPinky
                    {
                      OFFSET -0.75 -1.75 -1.85
                      CHANNELS 6 Xposition Yposition Zposition Zrotation Xrotation Yrotation
                      JOINT LeftHandPinky1
                      {
                        OFFSET 0 -7.15 -1
                        CHANNELS 6 Xposition Yposition Zposition Zrotation Xrotation Yrotation
                        JOINT LeftHandPinky2
                        {
                          OFFSET 0 -3 0
                          CHANNELS 6 Xposition Yposition Zposition Zrotation Xrotation Yrotation
                          JOINT LeftHandPinky3
                          {
                            OFFSET 0 -2.35 0
                            CHANNELS 6 Xposition Yposition Zposition Zrotation Xrotation Yrotation
                            End Site
                            {
                              OFFSET 0 -2.1 0
                            }
                          }
                        }
                      }
                    }
                  }
                }
              }
            }
          }
          JOINT RightShoulder
          {
            OFFSET -5 17 0
            CHANNELS 6 Xposition Yposition Zposition Zrotation Xrotation Yrotation
            JOINT RightShoulder2
            {
              OFFSET -6.45 0 0
              CHANNELS 6 Xposition Yposition Zposition Zrotation Xrotation Yrotation
              JOINT RightArm
              {
                OFFSET -6.45 0 0
                CHANNELS 6 Xposition Yposition Zposition Zrotation Xrotation Yrotation
                JOINT RightForeArm
                {
                  OFFSET 0 -32.4 -2
                  CHANNELS 6 Xposition Yposition Zposition Zrotation Xrotation Yrotation
                  JOINT RightHand
                  {
                    OFFSET 0 -25.65 2
                    CHANNELS 6 Xposition Yposition Zposition Zrotation Xrotation Yrotation
                    JOINT RightHandThumb1
                    {
                      OFFSET 0.5 -1.5 2.65
                      CHANNELS 6 Xposition Yposition Zposition Zrotation Xrotation Yrotation
                      JOINT RightHandThumb2
                      {
                        OFFSET 0 -3.8 3.7
                        CHANNELS 6 Xposition Yposition Zposition Zrotation Xrotation Yrotation
                        JOINT RightHandThumb3
                        {
                          OFFSET 0 -3 2.7
                          CHANNELS 6 Xposition Yposition Zposition Zrotation Xrotation Yrotation
                          End Site
                          {
                            OFFSET 0 -2.3 1.8
                          }
                        }
                      }
                    }
                    JOINT RightHandIndex
                    {
                      OFFSET 0 -1.9 1.6
                      CHANNELS 6 Xposition Yposition Zposition Zrotation Xrotation Yrotation
                      JOINT RightHandIndex1
                      {
                        OFFSET 0 -8.3 1.9
                        CHANNELS 6 Xposition Yposition Zposition Zrotation Xrotation Yrotation
                        JOINT RightHandIndex2
                        {
                          OFFSET 0 -4.5 0
                          CHANNELS 6 Xposition Yposition Zposition Zrotation Xrotation Yrotation
                          JOINT RightHandIndex3
                          {
                            OFFSET 0 -3.4 0
                            CHANNELS 6 Xposition Yposition Zposition Zrotation Xrotation Yrotation
                            End Site
                            {
                              OFFSET 0 -2.6 0
                            }
                          }
                        }
                      }
                    }
                    JOINT RightHandMiddle
                    {
                      OFFSET 0.25 -2.2 0.4
                      CHANNELS 6 Xposition Yposition Zposition Zrotation Xrotation Yrotation
                      JOINT RightHandMiddle1
                      {
                        OFFSET 0 -8.3 1
                        CHANNELS 6 Xposition Yposition Zposition Zrotation Xrotation Yrotation
                        JOINT RightHandMiddle2
                        {
                          OFFSET 0 -4.65 0
                          CHANNELS 6 Xposition Yposition Zposition Zrotation Xrotation Yrotation
                          JOINT RightHandMiddle3
                          {
                            OFFSET 0 -3.3 0
                            CHANNELS 6 Xposition Yposition Zposition Zrotation Xrotation Yrotation
                            End Site
                            {
                              OFFSET 0 -2.7 0
                            }
                          }
                        }
                      }
                    }
                    JOINT RightHandRing
                    {
                      OFFSET 0.5 -2.15 -0.8
                      CHANNELS 6 Xposition Yposition Zposition Zrotation Xrotation Yrotation
                      JOINT RightHandRing1
                      {
                        OFFSET 0 -7.75 -0.2
                        CHANNELS 6 Xposition Yposition Zposition Zrotation Xrotation Yrotation
                        JOINT RightHandRing2
                        {
                          OFFSET 0 -3.8 0
                          CHANNELS 6 Xposition Yposition Zposition Zrotation Xrotation Yrotation
                          JOINT RightHandRing3
                          {
                            OFFSET 0 -3.4 0
                            CHANNELS 6 Xposition Yposition Zposition Zrotation Xrotation Yrotation
                            End Site
                            {
                              OFFSET 0 -2.6 0
                            }
                          }
                        }
                      }
                    }
                    JOINT RightHandPinky
                    {
                      OFFSET 0.75 -1.75 -1.85
                      CHANNELS 6 Xposition Yposition Zposition Zrotation Xrotation Yrotation
                      JOINT RightHandPinky1
                      {
                        OFFSET 0 -7.15 -1
                        CHANNELS 6 Xposition Yposition Zposition Zrotation Xrotation Yrotation
                        JOINT RightHandPinky2
                        {
                          OFFSET 0 -3 0
                          CHANNELS 6 Xposition Yposition Zposition Zrotation Xrotation Yrotation
                          JOINT RightHandPinky3
                          {
                            OFFSET 0 -2.35 0
                            CHANNELS 6 Xposition Yposition Zposition Zrotation Xrotation Yrotation
                            End Site
                            {
                              OFFSET 0 -2.1 0
                            }
                          }
                        }
                      }
                    }
                  }
                }
              }
            }
          }
        }
      }
    }
  }
  JOINT LeftUpLeg
  {
    OFFSET 8 0 0
    CHANNELS 6 Xposition Yposition Zposition Zrotation Xrotation Yrotation
    JOINT LeftLeg
    {
      OFFSET 0 -45 -1
      CHANNELS 6 Xposition Yposition Zposition Zrotation Xrotation Yrotation
      JOINT LeftFoot
      {
        OFFSET 0 -41 -2
        CHANNELS 6 Xposition Yposition Zposition Zrotation Xrotation Yrotation
        JOINT LeftToeBase
        {
          OFFSET 0 -7.5 12.5
          CHANNELS 6 Xposition Yposition Zposition Zrotation Xrotation Yrotation
          JOINT LeftFootToe
          {
            OFFSET 0 0 4
            CHANNELS 6 Xposition Yposition Zposition Zrotation Xrotation Yrotation
            End Site
            {
              OFFSET 0 0 0
            }
          }
        }
      }
    }
  }
  JOINT RightUpLeg
  {
    OFFSET -8 0 0
    CHANNELS 6 Xposition Yposition Zposition Zrotation Xrotation Yrotation
    JOINT RightLeg
    {
      OFFSET 0 -45 -1
      CHANNELS 6 Xposition Yposition Zposition Zrotation Xrotation Yrotation
      JOINT RightFoot
      {
        OFFSET 0 -41 -2
        CHANNELS 6 Xposition Yposition Zposition Zrotation Xrotation Yrotation
        JOINT RightToeBase
        {
          OFFSET 0 -7.5 12.5
          CHANNELS 6 Xposition Yposition Zposition Zrotation Xrotation Yrotation
          JOINT RightFootToe
          {
            OFFSET 0 0 4
            CHANNELS 6 Xposition Yposition Zposition Zrotation Xrotation Yrotation
            End Site
            {
              OFFSET 0 0 0
            }
          }
        }
      }
    }
  }
}
MOTION
Frames:	3
Frame Time:	0.0111111
-271.984 91.1869 1552.03 2.4197 -5.06682 141.713 -2.27374e-13 8 0 5.7531 21.8614 4.42871 1.13687e-13 8 -4.54747e-13 -2.37969 7.40272 2.52815 0 8 0 -1.14823 3.71175 1.22509 0 8 4.54747e-13 -1.14523 3.70247 1.22184 1.13687e-13 17 2.27374e-13 -0.0540371 5.02688 -3.76721 0 10.8 0 0.39865 11.7412 -8.87595 5 17 0 -9.38075 -1.03098 2.44163 6.45 0 0 -0.819606 -0.632471 3.07592 6.45 0 0 -3.46053 36.3053 73.82 -1.13687e-13 -32.4 -2 -109.293 -38.7393 -167.55 2.27374e-13 -25.65 2 21.9405 -7.9766 -13.4324 -0.5 -1.5 2.65 -24.0958 -53.465 124.091 0 -3.8 3.7 -0.032954 38.6747 0.00874054 5.68434e-14 -3 2.7 -0.00595478 63.8648 0.00657836 0 -1.9 1.6 3.18055e-15 5.96354e-16 -7.85199e-15 0 -8.3 1.9 -33.0068 16.3405 5.59679 0 -4.5 -1.13687e-13 -76.1615 0.00300369 -0.00130555 1.13687e-13 -3.4 0 -59.829 -0.00172207 0.0010284 -0.25 -2.2 0.4 3.18055e-15 5.96354e-16 -7.85199e-15 1.13687e-13 -8.3 1 -45.9857 15.5971 8.77458 2.27374e-13 -4.65 0 -73.4334 -0.00649822 0.000627864 1.13687e-13 -3.3 0 -90.0002 6.59965e-14 -7.95139e-14 -0.5 -2.15 -0.8 3.18055e-15 5.96354e-16 -7.85199e-15 0 -7.75 -0.2 -82.3049 -4.1958 10.5655 0 -3.8 -1.13687e-13 -18.0524 1.59028e-15 0.00439972 -2.27374e-13 -3.4 0 -90.0002 -0.0017395 -1.13705e-13 -0.75 -1.75 -1.85 3.18055e-15 5.96354e-16 -7.85199e-15 0 -7.15 -1 -81.0759 5.16802 14.1954 0 -3 0 -62.5769 0.00822956 -0.00297766 -1.42109e-14 -2.35 1.13687e-13 -90.0002 5.62561e-14 -4.77083e-14 -5 17 0 3.46629 -0.0122408 -0.622354 -6.45 0 0 -1.73851 0.404357 -1.24815 -6.45 1.13687e-13 -2.27374e-13 -61.8028 -23.9137 2.22363 0 -32.4 -2 -40.377 -77.3101 -39.9446 0 -25.65 2 -31.7921 17.928 18.9158 0.5 -1.5 2.65 25.4731 6.06914 13.8942 1.13687e-13 -3.8 3.7 1.47258 23.7777 -0.530623 -1.13687e-13 -3 2.7 0.0869066 10.4053 -0.116446 0 -1.9 1.6 3.97569e-16 -3.18055e-15 -5.1684e-15 -5.68434e-14 -8.3 1.9 24.9831 14.0816 -3.42238 5.68434e-14 -4.5 2.27374e-13 -1.72932e-07 0.00199724 0.00496098 -2.84217e-14 -3.4 2.27374e-13 -1.69411e-07 0.0019835 0.00489362 0.25 -2.2 0.4 3.97569e-16 -3.18055e-15 -5.1684e-15 0 -8.3 1 25.6118 11.7957 -3.71087 5.68434e-14 -4.65 0 75.4644 -0.000323719 -0.00399939 0 -3.3 -2.27374e-13 58.8364 -2.34992e-05 -0.00426345 0.5 -2.15 -0.8 3.97569e-16 -3.18055e-15 -5.1684e-15 -5.68434e-14 -7.75 -0.2 56.6099 11.1799 -10.2808 -1.13687e-13 -3.8 2.27374e-13 48.8987 0.00150519 0.000115185 0 -3.4 -2.27374e-13 33.7519 0.00179028 0.00195677 0.75 -1.75 -1.85 3.97569e-16 -3.18055e-15 -5.1684e-15 -5.68434e-14 -7.15 -1 64.7106 -6.55262 -1.4251 0 -3 2.27374e-13 21.4218 0.000937044 5.24607e-05 0 -2.35 0 16.8077 0.000295328 0.00518065 8 -2.84217e-14 0 5.8111 -23.7018 -27.4045 -2.27374e-13 -45 -1 0.473216 22.1285 -3.29107 -2.27374e-13 -41 -2 -10.0795 -4.48824 24.5031 -2.27374e-13 -7.5 12.5 1.63997e-15 -4.96962e-16 -3.18055e-15 1.13687e-13 -6.03961e-14 4 11.9079 -5.94306 65.1023 -8 1.42109e-14 2.27374e-13 4.72344 -7.00996 -25.3906 0 -45 -1 0.140211 17.3444 -1.33451 0 -41 -2 -1.53453 -13.1377 18.2171 3.41061e-13 -7.5 12.5 6.30908e-18 -6.0179e-18 6.36111e-15 -1.13687e-13 3.46945e-18 4 -1.40051 15.45 57.7437 
-271.985 91.1874 1552.03 2.41455 -5.06859 141.713 -1.13687e-13 8 0 5.76274 21.8648 4.43141 1.13687e-13 8 -2.27374e-13 -2.374 7.40272 2.52474 -1.13687e-13 8 2.27374e-13 -1.14492 3.71178 1.2233 0 8 2.27374e-13 -1.14194 3.70251 1.22012 5.68434e-14 17 0 -0.0576821 5.02656 -3.76621 -1.13687e-13 10.8 -4.54747e-13 0.38945 11.7423 -8.86997 5 17 0 -9.37904 -1.04055 2.4729 6.45 1.13687e-13 0 -0.820394 -0.631116 3.07558 6.45 0 0 -3.46053 36.3053 73.82 0 -32.4 -2 -109.293 -38.7393 -167.55 0 -25.65 2 21.9752 -7.98363 -13.364 -0.5 -1.5 2.65 -24.059 -53.4581 124.124 -5.68434e-14 -3.8 3.7 -0.0329411 38.7052 0.00874427 0 -3 2.7 -0.00595815 63.9188 0.00657873 0 -1.9 1.6 6.36111e-15 2.18663e-15 -7.7526e-15 -1.13687e-13 -8.3 1.9 -32.9854 16.3496 5.59677 0 -4.5 0 -76.1313 0.00300369 -0.00130555 0 -3.4 -1.13687e-13 -59.7852 -0.00172207 0.0010284 -0.25 -2.2 0.4 6.36111e-15 2.18663e-15 -7.7526e-15 2.27374e-13 -8.3 1 -45.9669 15.6006 8.77468 0 -4.65 0 -73.439 -0.00649822 0.000627864 1.13687e-13 -3.3 0 -90.0002 4.85035e-14 -5.08889e-14 -0.5 -2.15 -0.8 6.36111e-15 2.18663e-15 -7.7526e-15 0 -7.75 -0.2 -82.2968 -4.19587 10.5631 0 -3.8 0 -18.0543 -7.95139e-16 0.00439972 0 -3.4 0 -90.0002 -0.0017395 -5.64548e-14 -0.75 -1.75 -1.85 6.36111e-15 2.18663e-15 -7.7526e-15 0 -7.15 -1 -81.0604 5.17448 14.1938 0 -3 0 -62.5866 0.00822956 -0.00297766 0 -2.35 0 -90.0002 3.45885e-14 1.43125e-14 -5 17 0 3.45517 -0.0122999 -0.621219 -6.45 -1.13687e-13 -2.27374e-13 -1.73858 0.404421 -1.24816 -6.45 1.13687e-13 0 -61.8414 -23.9573 2.20205 5.68434e-14 -32.4 -2 -39.8465 -77.2127 -39.5688 0 -25.65 2 -31.76 17.9424 18.7214 0.5 -1.5 2.65 25.5025 6.05801 14.0013 -1.13687e-13 -3.8 3.7 1.44956 23.7298 -0.52307 0 -3 2.7 0.077911 8.82155 -0.110399 2.84217e-14 -1.9 1.6 4.77083e-15 -3.18055e-15 -1.98785e-15 -5.68434e-14 -8.3 1.9 25.1587 14.1336 -3.45998 5.68434e-14 -4.5 0 -1.72932e-07 0.00199724 0.00496098 0 -3.4 0 -1.69411e-07 0.0019835 0.00489362 0.25 -2.2 0.4 4.77083e-15 -3.18055e-15 -1.98785e-15 -2.84217e-14 -8.3 1 25.7215 11.7737 -3.71899 0 -4.65 -2.27374e-13 75.3029 -0.000325323 -0.00401357 -1.13687e-13 -3.3 -2.27374e-13 58.6095 -3.64178e-05 -0.00435639 0.5 -2.15 -0.8 4.77083e-15 -3.18055e-15 -1.98785e-15 -8.52651e-14 -7.75 -0.2 56.6265 11.2082 -10.3 0 -3.8 -2.27374e-13 49.0709 0.00152149 0.000113144 -1.13687e-13 -3.4 0 33.8677 0.00180231 0.0019548 0.75 -1.75 -1.85 4.77083e-15 -3.18055e-15 -1.98785e-15 -5.68434e-14 -7.15 -1 64.8083 -6.54217 -1.44314 1.13687e-13 -3 2.27374e-13 21.5384 0.000943056 0.000126469 0 -2.35 0 16.8826 0.00029406 0.00538509 8 1.42109e-14 -2.27374e-13 5.80033 -23.704 -27.431 -2.27374e-13 -45 -1 0.47339 22.1314 -3.29063 -2.27374e-13 -41 -2 -10.08 -4.49414 24.4988 0 -7.5 12.5 1.59028e-15 -3.97569e-16 3.18055e-15 1.13687e-13 -5.68434e-14 4 11.9099 -5.93651 65.1264 -8 1.42109e-14 0 4.7177 -7.01379 -25.3938 -2.27374e-13 -45 -1 0.140131 17.3455 -1.33346 2.27374e-13 -41 -2 -1.52913 -13.1368 18.2419 0 -7.5 12.5 6.40615e-18 -5.14433e-18 1.90833e-14 -1.13687e-13 6.93889e-18 4 -1.39912 15.4502 57.7442 
-271.986 91.1879 1552.03 2.41011 -5.07014 141.715 0 8 0 5.77113 21.8682 4.43631 1.13687e-13 8 0 -2.367 7.40272 2.52132 0 8 2.27374e-13 -1.14157 3.71181 1.22083 -1.13687e-13 8 2.27374e-13 -1.1386 3.70255 1.21765 5.68434e-14 17 -2.27374e-13 -0.0603748 5.02577 -3.76547 0 10.8 0 0.382923 11.7383 -8.86816 5 17 2.27374e-13 -9.37728 -1.05035 2.50377 6.45 0 -2.27374e-13 -0.821232 -0.629743 3.07523 6.45 -1.13687e-13 0 -3.46053 36.3053 73.82 5.68434e-14 -32.4 -2 -109.293 -38.7393 -167.55 4.54747e-13 -25.65 2 22.0097 -7.99064 -13.2958 -0.5 -1.5 2.65 -24.011 -53.4315 124.161 5.68434e-14 -3.8 3.7 -0.0329318 38.7516 0.00874995 0 -3 2.7 -0.00598977 64.0813 0.00660446 1.13687e-13 -1.9 1.6 6.36111e-15 2.18663e-15 -4.77083e-15 0 -8.3 1.9 -32.9526 16.3714 5.59731 0 -4.5 0 -76.091 0.00300369 -0.00130555 1.13687e-13 -3.4 -1.13687e-13 -59.7269 -0.00172207 0.0010284 -0.25 -2.2 0.4 6.36111e-15 2.18663e-15 -4.77083e-15 2.27374e-13 -8.3 1 -45.9447 15.6115 8.77539 2.27374e-13 -4.65 -1.13687e-13 -73.436 -0.00649822 0.000627864 2.27374e-13 -3.3 -1.13687e-13 -90.0002 4.92986e-14 -7.31528e-14 -0.5 -2.15 -0.8 6.36111e-15 2.18663e-15 -4.77083e-15 0 -7.75 -0.2 -82.2862 -4.20109 10.5605 0 -3.8 0 -18.0333 7.95139e-16 0.00439972 -2.27374e-13 -3.4 0 -90.0002 -0.0017395 -7.55382e-14 -0.75 -1.75 -1.85 6.36111e-15 2.18663e-15 -4.77083e-15 0 -7.15 -1 -81.0494 5.17951 14.1929 2.27374e-13 -3 0 -62.5805 0.00822956 -0.00297766 0 -2.35 0 -90.0002 7.30534e-14 -3.65764e-14 -5 17 0 3.44304 -0.0125528 -0.621304 -6.45 -1.13687e-13 0 -1.73864 0.405495 -1.24817 -6.45 -1.13687e-13 -2.27374e-13 -61.8819 -23.9933 2.19085 0 -32.4 -2 -39.4186 -77.127 -39.2741 0 -25.65 2 -31.7237 17.9729 18.5145 0.5 -1.5 2.65 25.5099 6.05712 14.0956 -1.13687e-13 -3.8 3.7 1.43074 23.6671 -0.516219 0 -3 2.7 0.0718973 7.42146 -0.102721 0 -1.9 1.6 3.97569e-15 3.18055e-15 -3.18055e-15 -5.68434e-14 -8.3 1.9 25.3371 14.2002 -3.5017 8.52651e-14 -4.5 2.27374e-13 -1.72932e-07 0.00199724 0.00496098 0 -3.4 2.27374e-13 -1.69411e-07 0.0019835 0.00489362 0.25 -2.2 0.4 3.97569e-15 3.18055e-15 -3.18055e-15 0 -8.3 1 25.8314 11.7679 -3.73106 0 -4.65 0 75.134 -0.00032692 -0.0040277 0 -3.3 -2.27374e-13 58.373 -4.95918e-05 -0.00445002 0.5 -2.15 -0.8 3.97569e-15 3.18055e-15 -3.18055e-15 -5.68434e-14 -7.75 -0.2 56.6568 11.2469 -10.3289 -1.13687e-13 -3.8 0 49.2199 0.00153788 0.00011128 -1.13687e-13 -3.4 0 33.968 0.00181446 0.00195317 0.75 -1.75 -1.85 3.97569e-15 3.18055e-15 -3.18055e-15 -5.68434e-14 -7.15 -1 64.9193 -6.52656 -1.46599 0 -3 0 21.6202 0.000949013 0.000201357 0 -2.35 0 16.935 0.000292818 0.00558923 8 -1.42109e-14 0 5.78646 -23.7069 -27.4638 0 -45 -1 0.473569 22.1345 -3.29019 -2.27374e-13 -41 -2 -10.0793 -4.50058 24.4986 0 -7.5 12.5 1.63997e-15 -4.96962e-16 9.54166e-15 0 -5.32907e-14 4 11.9093 -5.9306 65.1435 -8 1.42109e-14 0 4.71242 -7.01681 -25.4011 0 -45 -1 0.140049 17.3467 -1.33241 -2.27374e-13 -41 -2 -1.52376 -13.1358 18.2657 2.27374e-13 -7.5 12.5 5.04727e-18 -5.82377e-18 1.59028e-14 0 0 4 -1.39541 15.4541 57.7351 
